<svg width="22" height="21" viewBox="0 0 22 21" fill="none" xmlns="http://www.w3.org/2000/svg">
<path d="M5.91976 1.75C4.77876 1.86287 4.01051 2.11662 3.43651 2.6915C2.40839 3.72138 2.40839 5.3795 2.40839 8.69663V12.2141C2.40839 15.5304 2.40839 17.1894 3.43651 18.2201C4.46464 19.2509 6.12014 19.25 9.43026 19.25H11.1864C14.4965 19.25 16.152 19.25 17.1801 18.2201C18.1138 17.2839 18.2004 15.8428 18.2083 13.1049" stroke="white" stroke-width="1.5" stroke-linecap="round" stroke-linejoin="round"/>
<path d="M9.43028 6.12496L10.3079 9.18746C10.7979 10.1587 11.413 10.4125 12.9417 10.5C14.157 10.4702 14.8623 10.3267 15.4643 9.80346C15.8747 9.44646 16.0602 8.90834 16.1503 8.37284L16.4513 6.56246M18.6458 4.81246V9.18746M7.7459 4.31634C9.13453 3.16396 10.3718 2.54534 12.9382 1.86459C13.2277 1.78815 13.5323 1.78966 13.821 1.86896C16.0925 2.49371 17.3193 3.04846 18.9625 4.28221C19.0325 4.33471 19.0535 4.43271 19.0045 4.50534C18.4682 5.29459 17.2703 5.93421 14.332 7.07346C13.72 7.30895 13.0418 7.3052 12.4324 7.06296C9.3034 5.82046 7.8649 5.15546 7.6899 4.46509C7.68421 4.43753 7.68646 4.40893 7.69637 4.3826C7.70628 4.35628 7.72345 4.3333 7.7459 4.31634Z" stroke="white" stroke-width="1.5" stroke-linecap="round" stroke-linejoin="round"/>
</svg>
