<svg width="25" height="25" viewBox="0 0 25 25" fill="none" xmlns="http://www.w3.org/2000/svg">
<path d="M20.16 17.5C20.6904 17.5 21.1991 17.2893 21.5742 16.9142C21.9493 16.5391 22.16 16.0304 22.16 15.5V4.5C22.16 3.96957 21.9493 3.46086 21.5742 3.08579C21.1991 2.71071 20.6904 2.5 20.16 2.5H9.62C9.97 3.11 10.16 3.8 10.16 4.5H20.16V15.5H11.16V17.5M15.16 7.5V9.5H9.16V22.5H7.16V16.5H5.16V22.5H3.16V14.5H1.66V9.5C1.66 8.96957 1.87072 8.46086 2.24579 8.08579C2.62086 7.71071 3.12957 7.5 3.66 7.5H15.16ZM8.16 4.5C8.16 5.03043 7.94929 5.53914 7.57422 5.91421C7.19914 6.28929 6.69044 6.5 6.16 6.5C5.62957 6.5 5.12086 6.28929 4.74579 5.91421C4.37072 5.53914 4.16 5.03043 4.16 4.5C4.16 3.96957 4.37072 3.46086 4.74579 3.08579C5.12086 2.71071 5.62957 2.5 6.16 2.5C6.69044 2.5 7.19914 2.71071 7.57422 3.08579C7.94929 3.46086 8.16 3.96957 8.16 4.5Z" fill="white"/>
</svg>
